<svg xmlns="http://www.w3.org/2000/svg" viewBox="0 0 90 42.03"><defs><style>.cls-1{fill:#004656;}.cls-2{fill:#e5e5e5;}</style></defs><g id="OBJECTS"><path class="cls-1" d="M90,18.06V25.2a7.57,7.57,0,0,1-7.57,7.57H38.31a21,21,0,1,1,.82-22.28h43.3A7.56,7.56,0,0,1,90,18.06ZM20.69,2.73A18.24,18.24,0,1,0,38.92,21,18.24,18.24,0,0,0,20.69,2.73ZM10.26,31.49v-20a3.21,3.21,0,0,1,3.2-3.21h9.67a1.61,1.61,0,0,1,1.61,1.61h0a1.61,1.61,0,0,1-1.61,1.61H13.48v20H23.6a1.61,1.61,0,0,1,1.61,1.61h0A1.61,1.61,0,0,1,23.6,34.7H13.46A3.21,3.21,0,0,1,10.26,31.49ZM26.93,14.94h0a1.6,1.6,0,0,0-.17,2.27L29,19.87H16.93a1.61,1.61,0,0,0-1.61,1.61h0a1.61,1.61,0,0,0,1.61,1.61H29l-2.28,2.65A1.6,1.6,0,0,0,26.93,28h0a1.61,1.61,0,0,0,2.27-.17l4.37-5.08a2,2,0,0,0,0-2.57L29.2,15.11A1.61,1.61,0,0,0,26.93,14.94Z"/><path class="cls-2" d="M43.54,27.22V16.77a.43.43,0,0,1,.12-.36.59.59,0,0,1,.37-.09h3.16a4.11,4.11,0,0,1,2.83.86,2.63,2.63,0,0,1,.84,2,2.49,2.49,0,0,1-.4,1.39,2.4,2.4,0,0,1-1.16.92v.07a2.77,2.77,0,0,1,1.47,1.08,3.14,3.14,0,0,1,.53,1.81,3.18,3.18,0,0,1-.82,2.29,3.91,3.91,0,0,1-2.95,1H44C43.7,27.77,43.54,27.59,43.54,27.22Zm3.26-6.58a1.74,1.74,0,0,0,1.14-.32,1,1,0,0,0,.38-.79,1,1,0,0,0-.3-.73,1.78,1.78,0,0,0-1.24-.36h-.52c-.2,0-.3.08-.3.23v1.77c0,.13.11.2.31.2Zm-.62,5h.75a1.88,1.88,0,0,0,1.31-.4,1.32,1.32,0,0,0,.44-1,1.35,1.35,0,0,0-.39-1,1.87,1.87,0,0,0-1.36-.47h-.71c-.12,0-.19,0-.22.09A.53.53,0,0,0,46,23v2.41C46,25.58,46,25.64,46.18,25.64Zm8.16,2.13H53.1a.81.81,0,0,1-.39-.06.6.6,0,0,1-.18-.51V16.89a.81.81,0,0,1,.06-.39.6.6,0,0,1,.51-.18h1.27c.26,0,.41,0,.48.14a.78.78,0,0,1,.1.43v5.35l2.19-5.35a1.4,1.4,0,0,1,.27-.47.55.55,0,0,1,.37-.1H59.1c.26,0,.41,0,.48.14a.78.78,0,0,1,.1.43V27.2a.78.78,0,0,1-.07.39.59.59,0,0,1-.51.18H57.83c-.25,0-.41,0-.48-.14a.78.78,0,0,1-.1-.43V21.59L55.09,27.2a.67.67,0,0,1-.75.57Zm8.44,0H61.55a.87.87,0,0,1-.39-.06A.6.6,0,0,1,61,27.2V16.89a.81.81,0,0,1,.06-.39.6.6,0,0,1,.51-.18h1.28c.25,0,.4,0,.47.14a.7.7,0,0,1,.1.43v5.35l2.17-5.35a1.23,1.23,0,0,1,.28-.47.55.55,0,0,1,.37-.1h1.33c.25,0,.41,0,.48.14a.78.78,0,0,1,.1.43V27.2a.68.68,0,0,1-.07.39.59.59,0,0,1-.51.18H66.29c-.25,0-.41,0-.48-.14a.79.79,0,0,1-.09-.43V21.59l-2.2,5.61a.83.83,0,0,1-.3.47A.82.82,0,0,1,62.78,27.77Zm3.16-12.21H63.16a1,1,0,0,1-.77-.33,1.08,1.08,0,0,1-.29-.73v-.23a.37.37,0,0,1,0-.15.16.16,0,0,1,.16-.08h1a.2.2,0,0,1,.23.23c0,.21.19.31.56.31h1c.37,0,.55-.1.55-.31a.21.21,0,0,1,.23-.23h1a.14.14,0,0,1,.15.08.66.66,0,0,1,.05.15v.23a1.12,1.12,0,0,1-.28.73A1,1,0,0,1,65.94,15.56Zm3.29.76h7.25a.28.28,0,0,1,.27.12.5.5,0,0,1,.08.27v1.46a.31.31,0,0,1-.35.34H74.36a.26.26,0,0,0-.3.29v8.4a.81.81,0,0,1-.06.39.6.6,0,0,1-.51.18H72.21c-.25,0-.41,0-.47-.14a.7.7,0,0,1-.1-.43V18.8a.26.26,0,0,0-.29-.29H69.28c-.27,0-.41-.11-.41-.33V16.63C68.87,16.42,69,16.32,69.23,16.32ZM79.38,27.77H78.14a.89.89,0,0,1-.4-.06.6.6,0,0,1-.18-.51V16.89a.78.78,0,0,1,.07-.39.6.6,0,0,1,.51-.18h1.27c.25,0,.41,0,.48.14a.78.78,0,0,1,.1.43v5.35l2.19-5.35a1.4,1.4,0,0,1,.27-.47.55.55,0,0,1,.37-.1h1.32c.25,0,.41,0,.48.14a.78.78,0,0,1,.1.43V27.2a.78.78,0,0,1-.07.39.6.6,0,0,1-.51.18H82.87c-.25,0-.41,0-.48-.14a.78.78,0,0,1-.1-.43V21.59L80.13,27.2a.67.67,0,0,1-.75.57Z"/></g></svg>