<svg xmlns="http://www.w3.org/2000/svg" xmlns:xlink="http://www.w3.org/1999/xlink" viewBox="0 0 50 50"><defs><style>.cls-1{isolation:isolate;}.cls-2{opacity:0.75;}.cls-3{fill:url(#Nueva_muestra_de_degradado_3);}.cls-4{fill:url(#Nueva_muestra_de_degradado_3-2);}.cls-5{fill:url(#Nueva_muestra_de_degradado_3-3);}.cls-6{fill:url(#Nueva_muestra_de_degradado_3-4);}.cls-7{fill:url(#Nueva_muestra_de_degradado_3-5);}.cls-8{fill:url(#Nueva_muestra_de_degradado_3-6);}.cls-9{fill:url(#Nueva_muestra_de_degradado_3-7);}.cls-10{fill:url(#Nueva_muestra_de_degradado_3-8);}.cls-11{fill:url(#Nueva_muestra_de_degradado_9);}.cls-12,.cls-14{opacity:0.35;}.cls-12,.cls-14,.cls-16,.cls-21,.cls-23,.cls-25,.cls-27{mix-blend-mode:soft-light;}.cls-13,.cls-14,.cls-21,.cls-25,.cls-26{fill:#040507;}.cls-15{fill:url(#Nueva_muestra_de_degradado_9-2);}.cls-16,.cls-27{opacity:0.5;}.cls-17{fill:url(#Безымянный_градиент_12);}.cls-18{fill:url(#Nueva_muestra_de_degradado_9-3);}.cls-19{fill:url(#Nueva_muestra_de_degradado_9-4);}.cls-20{fill:url(#Nueva_muestra_de_degradado_9-5);}.cls-21{opacity:0.47;}.cls-22{fill:url(#Degradado_sin_nombre_5);}.cls-23{fill:#fff;}.cls-24{fill:url(#Nueva_muestra_de_degradado_9-6);}.cls-26{opacity:0.64;}.cls-27{fill:url(#Degradado_sin_nombre_17);}</style><linearGradient id="Nueva_muestra_de_degradado_3" x1="24.31" y1="50.24" x2="29.18" y2="-20.14" gradientUnits="userSpaceOnUse"><stop offset="0" stop-color="#ffa71a"/><stop offset="1" stop-color="#eaeac7"/></linearGradient><linearGradient id="Nueva_muestra_de_degradado_3-2" x1="23.86" y1="50.21" x2="28.73" y2="-20.17" xlink:href="#Nueva_muestra_de_degradado_3"/><linearGradient id="Nueva_muestra_de_degradado_3-3" x1="21.87" y1="50.07" x2="26.74" y2="-20.31" xlink:href="#Nueva_muestra_de_degradado_3"/><linearGradient id="Nueva_muestra_de_degradado_3-4" x1="22.32" y1="50.1" x2="27.19" y2="-20.28" xlink:href="#Nueva_muestra_de_degradado_3"/><linearGradient id="Nueva_muestra_de_degradado_3-5" x1="23.41" y1="50.18" x2="28.28" y2="-20.21" xlink:href="#Nueva_muestra_de_degradado_3"/><linearGradient id="Nueva_muestra_de_degradado_3-6" x1="24.75" y1="50.27" x2="29.63" y2="-20.11" xlink:href="#Nueva_muestra_de_degradado_3"/><linearGradient id="Nueva_muestra_de_degradado_3-7" x1="23.21" y1="50.16" x2="28.08" y2="-20.22" xlink:href="#Nueva_muestra_de_degradado_3"/><linearGradient id="Nueva_muestra_de_degradado_3-8" x1="22.77" y1="50.13" x2="27.64" y2="-20.25" xlink:href="#Nueva_muestra_de_degradado_3"/><linearGradient id="Nueva_muestra_de_degradado_9" x1="24.07" y1="26.69" x2="30.97" y2="26.69" gradientUnits="userSpaceOnUse"><stop offset="0" stop-color="#0c1c30"/><stop offset="1" stop-color="#699dd6"/></linearGradient><linearGradient id="Nueva_muestra_de_degradado_9-2" x1="6.72" y1="21.43" x2="16.75" y2="21.43" xlink:href="#Nueva_muestra_de_degradado_9"/><linearGradient id="Безымянный_градиент_12" x1="7.93" y1="25.73" x2="39.72" y2="25.73" gradientUnits="userSpaceOnUse"><stop offset="0" stop-color="#699dd6"/><stop offset="1" stop-color="#699dd6"/></linearGradient><linearGradient id="Nueva_muestra_de_degradado_9-3" x1="6.69" y1="26.98" x2="24.13" y2="26.98" xlink:href="#Nueva_muestra_de_degradado_9"/><linearGradient id="Nueva_muestra_de_degradado_9-4" x1="18.92" y1="25.53" x2="39.32" y2="25.53" xlink:href="#Nueva_muestra_de_degradado_9"/><linearGradient id="Nueva_muestra_de_degradado_9-5" x1="31.98" y1="8.34" x2="39.72" y2="8.34" xlink:href="#Nueva_muestra_de_degradado_9"/><linearGradient id="Degradado_sin_nombre_5" x1="27.78" y1="15.98" x2="13.81" y2="28.02" gradientUnits="userSpaceOnUse"><stop offset="0" stop-color="#699dd6"/><stop offset="0.01" stop-color="#679bd3"/><stop offset="0.27" stop-color="#476e99"/><stop offset="0.5" stop-color="#2e4b6c"/><stop offset="0.71" stop-color="#1b314b"/><stop offset="0.88" stop-color="#102237"/><stop offset="1" stop-color="#0c1c30"/></linearGradient><linearGradient id="Nueva_muestra_de_degradado_9-6" x1="20.77" y1="16.78" x2="36.25" y2="16.78" xlink:href="#Nueva_muestra_de_degradado_9"/><radialGradient id="Degradado_sin_nombre_17" cx="29.95" cy="11.86" r="11.1" gradientUnits="userSpaceOnUse"><stop offset="0.55" stop-color="#fff" stop-opacity="0"/><stop offset="0.73" stop-color="#fff"/></radialGradient></defs><g class="cls-1"><g id="OBJECTS"><g class="cls-2"><path class="cls-3" d="M9.15,43.86h31.7a24.18,24.18,0,0,0,3.5-3.65H5.65A24.18,24.18,0,0,0,9.15,43.86Z"/><path class="cls-4" d="M3.74,37.37H46.26A23.93,23.93,0,0,0,48,33.71H2A23.93,23.93,0,0,0,3.74,37.37Z"/><path class="cls-5" d="M25,.69A24.35,24.35,0,0,0,11.29,4.88H38.71A24.35,24.35,0,0,0,25,.69Z"/><path class="cls-6" d="M42.18,7.73H7.82a23.78,23.78,0,0,0-3.06,3.65H45.24A23.78,23.78,0,0,0,42.18,7.73Z"/><path class="cls-7" d="M1.17,30.87H48.83a23.33,23.33,0,0,0,.58-3.65H.59A23.33,23.33,0,0,0,1.17,30.87Z"/><path class="cls-8" d="M25,49.68a24.36,24.36,0,0,0,11.71-3H13.29A24.36,24.36,0,0,0,25,49.68Z"/><path class="cls-9" d="M49.09,20.72H.91a24.41,24.41,0,0,0-.39,3.65h49A24.41,24.41,0,0,0,49.09,20.72Z"/><path class="cls-10" d="M46.91,14.22H3.09a24.36,24.36,0,0,0-1.48,3.66H48.39A24.36,24.36,0,0,0,46.91,14.22Z"/></g><path class="cls-11" d="M27.49,23.34a4.61,4.61,0,0,1,1.14,2.15A6.79,6.79,0,0,0,31,28.55a2.65,2.65,0,0,1-1.76,1.26,4.77,4.77,0,0,1-2,.18,3.66,3.66,0,0,1-3-4.54Z"/><g class="cls-12"><path class="cls-13" d="M28.3,23.19a7.46,7.46,0,0,0,1.53,5.28,9,9,0,0,1-4.56-4.69Z"/></g><g class="cls-12"><path class="cls-13" d="M27.15,24.43A4.89,4.89,0,0,0,28.08,29a6.46,6.46,0,0,1-4-4.51Z"/></g><g class="cls-12"><path class="cls-13" d="M26.11,25.09a9.47,9.47,0,0,0,0,3.75,10.67,10.67,0,0,1-3-2.86Z"/></g><path class="cls-14" d="M27.49,23.34a4.61,4.61,0,0,1,1.14,2.15A6.79,6.79,0,0,0,31,28.55a2.65,2.65,0,0,1-1.76,1.26,4.77,4.77,0,0,1-2,.18,3.66,3.66,0,0,1-3-4.54Z"/><path class="cls-15" d="M16.75,11.46a12.11,12.11,0,0,0-4.2.3,1.56,1.56,0,0,0-.87.45.59.59,0,0,0,.11.87,4.62,4.62,0,0,0-1.64,1.05,1.6,1.6,0,0,0-.31,1.81,6,6,0,0,0-1.72,2.13c-.31.64-.44,1.53.14,1.93a4.76,4.76,0,0,0-1.51,3.38c0,.35.12.81.47.83A6.9,6.9,0,0,0,6.9,28.3a4.88,4.88,0,0,0,2.5,3.17Z"/><g class="cls-16"><path class="cls-13" d="M12.25,12.91a13.2,13.2,0,0,1,4.62-1.68l-.42,3.06A11.56,11.56,0,0,0,12.25,12.91Z"/></g><g class="cls-16"><path class="cls-13" d="M10.31,16a11,11,0,0,1,4.81-1.58l-.6,3A9.51,9.51,0,0,0,10.31,16Z"/></g><g class="cls-16"><path class="cls-13" d="M8.75,19.9a10.46,10.46,0,0,1,3.84-2L12.39,21A9,9,0,0,0,8.75,19.9Z"/></g><g class="cls-16"><path class="cls-13" d="M7.49,24.1A11,11,0,0,1,8.7,22.51a4.79,4.79,0,0,1,2-1.3l.09,3.09a2.37,2.37,0,0,0-1.42-.39A10.32,10.32,0,0,0,7.49,24.1Z"/></g><path class="cls-17" d="M35.37,5A2.81,2.81,0,0,0,35,4.22a1.06,1.06,0,0,0-1.37-.32,6,6,0,0,1-.47.41,1.37,1.37,0,0,1-.36.11A40.74,40.74,0,0,0,18.6,10.06a28.93,28.93,0,0,0-6.14,5.29,19.06,19.06,0,0,0-3.73,6.49,20.11,20.11,0,0,0,.83,13.45A14.09,14.09,0,0,0,13.43,41c2.85,2.34,6.86,2.86,10.49,2.22A3,3,0,0,1,25,43.19a2.8,2.8,0,0,1,1,.5,29,29,0,0,0,8.77,4,5,5,0,0,0-1.18-3.93A15.92,15.92,0,0,0,30.37,41a2.21,2.21,0,0,1-.73-.76,1.94,1.94,0,0,1-.14-.76,26.73,26.73,0,0,0,0-3,2.9,2.9,0,0,0-1.55-2.38,14.63,14.63,0,0,0-3.08,4.07c-1.49-.17-3.1-.4-4.17-1.46a1.49,1.49,0,0,1-.44-.7,1.93,1.93,0,0,1,.23-1.17,30.11,30.11,0,0,1,3.82-7.12c1.16-1.46,2.58-2.69,3.82-4.09.92-1.05,1.75-2.19,2.7-3.21s1.87-1.76,2.8-2.65a25,25,0,0,0,3.89-4.39,7.43,7.43,0,0,1,1-1.59,2,2,0,0,1,.46-.29,1.64,1.64,0,0,0,.66-.67c.44-.91-.41-1.48-1.23-1.44-1.19.06-1.92,0-2.36-1.22C35.66,7.26,35.72,6,35.37,5Z"/><path class="cls-18" d="M18.6,10.06a31.08,31.08,0,0,0-7.48,8.81A17.44,17.44,0,0,0,9.34,29.65a22.29,22.29,0,0,0,1.4,5.42,14.53,14.53,0,0,0,2.76,4.72,10.23,10.23,0,0,0,4.65,2.8,17.51,17.51,0,0,0,5.77.66,13.74,13.74,0,0,1-6,.52,10.82,10.82,0,0,1-5.74-2.59A15.07,15.07,0,0,1,8.58,36a23.39,23.39,0,0,1-1.69-6,19.49,19.49,0,0,1,.18-6.28,16.92,16.92,0,0,1,2.39-5.8A22.53,22.53,0,0,1,18.6,10.06Z"/><path class="cls-19" d="M20.91,39.22a3,3,0,0,1-1.09-1.93A7.48,7.48,0,0,1,19.88,35a17.06,17.06,0,0,1,1.3-4.24,20,20,0,0,1,2.27-3.85,37.29,37.29,0,0,1,2.93-3.23c1-1,1.77-2,2.76-3.13l.77-.81c.27-.25.55-.48.82-.72.54-.48,1.09-.94,1.65-1.4,1.1-.93,2.19-1.79,3.22-2.73a18.54,18.54,0,0,0,1.47-1.47c.47-.47.78-1.2,1.41-1.61a20.53,20.53,0,0,0-.84,2,15,15,0,0,1-1.13,1.89A35,35,0,0,1,33.73,19c-.9,1.06-2,2-2.8,3.06a37.66,37.66,0,0,1-2.77,3.34c-1,1-2,2-2.9,3a25.09,25.09,0,0,0-2.38,3.27,23.59,23.59,0,0,0-1.83,3.66C20.54,36.58,20.15,37.94,20.91,39.22Z"/><path class="cls-20" d="M38.94,11.54a1.64,1.64,0,0,0,.66-.67c.44-.91-.41-1.48-1.23-1.44-1.19.06-1.92,0-2.36-1.22-.35-1-.29-2.23-.64-3.24A2.81,2.81,0,0,0,35,4.22a1.06,1.06,0,0,0-1.37-.32A4.56,4.56,0,0,0,32,7.2,10.39,10.39,0,0,0,32.37,11a2.5,2.5,0,0,0,1.16,1.81,2.25,2.25,0,0,0,1,.15A9.55,9.55,0,0,0,38.94,11.54Z"/><path class="cls-21" d="M33.52,6a8.33,8.33,0,0,0,.26,6.2,17.77,17.77,0,0,0,3.93-1,2.1,2.1,0,0,0,.61-.32.75.75,0,0,0,.31-.58.36.36,0,0,0-.11-.28.57.57,0,0,0-.29-.08l-1.47-.11a1.63,1.63,0,0,1-1-.32,1.6,1.6,0,0,1-.33-.6,13.17,13.17,0,0,1-.72-3.22c0-.23-.1-.85-.44-.8S33.62,5.75,33.52,6Z"/><path class="cls-22" d="M11.87,25.34c.14.95,1.09,1.55,2,1.86A7.93,7.93,0,0,0,24,21.89c-2.22,0-3.64-1.06-4.12-1a8.22,8.22,0,0,0-2.39,1.37c-.85.51-1.71,1-2.57,1.48S12.91,24.83,11.87,25.34Z"/><path class="cls-23" d="M27.85,7.43a1.32,1.32,0,0,0-.14.65,1.19,1.19,0,0,0,.34.91,1.23,1.23,0,0,0,.84.25A1.21,1.21,0,0,0,29.67,9,1.27,1.27,0,0,0,30,8,1.16,1.16,0,0,0,27.85,7.43Z"/><path class="cls-24" d="M22,14.23A20.87,20.87,0,0,0,25.4,15.8a9,9,0,0,0,1.5.36l.36.05h.41l.8,0a4.38,4.38,0,0,0,.81,0c.27,0,.54,0,.82,0A7.44,7.44,0,0,0,31.61,16a11.13,11.13,0,0,0,3.31-1.44,5,5,0,0,1-2.25,3.63,6.06,6.06,0,0,1-2.11.92,12.11,12.11,0,0,1-2.18.19l-1.1-.1-.54-.08a5.32,5.32,0,0,1-.57-.16,6.1,6.1,0,0,1-2-1.11A5.85,5.85,0,0,1,22,14.23Z"/><path class="cls-25" d="M28.44,7.39a.76.76,0,0,0,.2,1.33.8.8,0,0,0,.76-.23.49.49,0,0,0,.13-.2.72.72,0,0,0,0-.25c0-.3,0-.54-.32-.68a.74.74,0,0,0-.72,0Z"/><path class="cls-26" d="M28.44,7.39a.76.76,0,0,0,.2,1.33.8.8,0,0,0,.76-.23.49.49,0,0,0,.13-.2.72.72,0,0,0,0-.25c0-.3,0-.54-.32-.68a.74.74,0,0,0-.72,0Z"/><g class="cls-12"><path class="cls-13" d="M16.94,13.15a.87.87,0,0,0,.15.79c.12.17.33.25.43.2a.8.8,0,0,0,.53-.33l.38-.79,1.39,2.24a.88.88,0,0,0,.3.31l.33.13,2,.56-.05.51a1.65,1.65,0,0,0,.26,1.06,2.42,2.42,0,0,0,1.52,1.05,2.31,2.31,0,0,1-2.51.68,3.19,3.19,0,0,1-2.11-2.21l1.91,1.07a3.14,3.14,0,0,1-1.68.23A3.21,3.21,0,0,1,18.19,18a3.09,3.09,0,0,1-1-3.07l1.78,1.46a2.65,2.65,0,0,1-1.53-.08,2.24,2.24,0,0,1-1.19-.95,1.67,1.67,0,0,1-.14-1.41A1.1,1.1,0,0,1,16.94,13.15Z"/></g><g class="cls-12"><path class="cls-13" d="M16.22,15.93a4.35,4.35,0,0,0,.48,1c.16.23.35.5.44.36s0-.25-.08-.33a1.4,1.4,0,0,0-.14-.16c-.08-.05,0-.06.27-.12l1.93,1.74c0-.18-.07-.29-.14-.27s-.12.09-.15.19a.62.62,0,0,0,.29.45,2.44,2.44,0,0,0,.91.38,1.58,1.58,0,0,1-.62,1,1.93,1.93,0,0,1-1.35.36,2.34,2.34,0,0,1-2-2.67L18,19.63a3,3,0,0,1-1.57.1,2.48,2.48,0,0,1-1-.5,1.94,1.94,0,0,1-.64-1.06,1.89,1.89,0,0,1,.33-1.48A1.82,1.82,0,0,1,16.22,15.93Z"/></g><g class="cls-12"><path class="cls-13" d="M14.31,14.68a2.4,2.4,0,0,0,.87.94c.21.11.33,0,.31,0s-.2-.11-.33.07a1,1,0,0,0,.05,1.18,1.16,1.16,0,0,1-1.39.85,1.63,1.63,0,0,1-1.25-1.08,1.57,1.57,0,0,1,.24-1.51A1.39,1.39,0,0,1,14.31,14.68Z"/></g><g class="cls-12"><path class="cls-13" d="M13.65,17.46a2.14,2.14,0,0,0,.68.79.21.21,0,0,0,.32-.24.42.42,0,0,0-.14-.28s0,0,.13-.06l2.25,1.67c0-.29-.24-.33-.44-.2s-.08.68.59.88a1.29,1.29,0,0,1-1.79,1A2.08,2.08,0,0,1,14,18.6l2.24,1.68a2.56,2.56,0,0,1-1.43.47A2.25,2.25,0,0,1,13,20a1.66,1.66,0,0,1-.37-1.72A1.49,1.49,0,0,1,13.65,17.46Z"/></g><g class="cls-12"><path class="cls-13" d="M11.52,18.05c.2.55.64.69.81.55s.2-.37,0-.4l1.81,1.58a.25.25,0,0,0,.14-.12s0-.09-.09-.14-.2.06-.16.22l2.11.69c-.07.21-.16.37-.22.59a.5.5,0,0,0,0,.39.71.71,0,0,0,.44.4.91.91,0,0,1-.62.53,1.55,1.55,0,0,1-.92-.07A2.42,2.42,0,0,1,13.6,21l2.1.69a2.48,2.48,0,0,1-3.13.48,2.53,2.53,0,0,1-1.1-1.33,2.43,2.43,0,0,1,0-1.68l1.81,1.58A2,2,0,0,1,11,19.79,1.23,1.23,0,0,1,11.52,18.05Z"/></g><g class="cls-12"><path class="cls-13" d="M10.94,20.37a3.7,3.7,0,0,0,.61.86c.19.15.39.08.4-.11a.5.5,0,0,0-.24-.32c-.13-.09-.21-.1-.2-.12a.23.23,0,0,1,.24-.07l2.15,1.57a.32.32,0,0,0-.18-.31.35.35,0,0,0-.33.07c-.22.16,0,.68.66.73.18.68-.56,1.45-1.52,1.3a1.88,1.88,0,0,1-1.2-.73,2,2,0,0,1-.43-1.45l2.15,1.56a3.54,3.54,0,0,1-1.31.36,2.39,2.39,0,0,1-1-.2,1.94,1.94,0,0,1-.88-.81,1.65,1.65,0,0,1,0-1.64A1.62,1.62,0,0,1,10.94,20.37Z"/></g><g class="cls-12"><path class="cls-13" d="M10.29,22.85a6.2,6.2,0,0,0,1,1c.24.17.38-.12.08-.33a.69.69,0,0,0-.28-.11c-.1,0-.15,0-.17,0s.07.12.15.21a2.58,2.58,0,0,0,1.22.59,1.51,1.51,0,0,1-.44,1.72,1.74,1.74,0,0,1-.84.4,1.69,1.69,0,0,1-.67,0,2,2,0,0,1-1.52-1.43,1.69,1.69,0,0,1,.05-1A1.72,1.72,0,0,1,10.29,22.85Z"/></g><g class="cls-12"><path class="cls-13" d="M9,27.3c.23.27.44.52.62.5s.18-.05.17-.15-.15-.23-.19-.28,0-.21-.12-.25a.12.12,0,0,0-.19,0l2.78.07c.16.31.25.41.18.35s-.18,0-.1.13a.75.75,0,0,0,.52.32,5.17,5.17,0,0,0,1.22.08,2,2,0,0,1-.37,1.42,2.16,2.16,0,0,1-1.47.84,2.38,2.38,0,0,1-2-.64,2.77,2.77,0,0,1-.81-1.46l2.78.07a2.3,2.3,0,0,1-1.11,1.07,2.12,2.12,0,0,1-1.47.13A1.45,1.45,0,0,1,8.63,29a1.12,1.12,0,0,1-.21-.75A1.15,1.15,0,0,1,9,27.3Z"/></g><g class="cls-12"><path class="cls-13" d="M9.82,29.51c.58.39,1,.39,1.19.28s.14-.35,0-.37-.38.1-.34.36.43.55,1.08.27a1.12,1.12,0,0,1,.32,1.72,1.81,1.81,0,0,1-2,.59A1.78,1.78,0,0,1,8.86,30.9,1.25,1.25,0,0,1,9.82,29.51Z"/></g><g class="cls-12"><path class="cls-13" d="M11.59,31.85A4.66,4.66,0,0,0,13,32c.14,0,.24,0,.25-.08s-.11-.17-.26-.21-.43.18-.33.39.56.28,1.22,0a1.26,1.26,0,0,1,.52,1.68,1.83,1.83,0,0,1-2,1,2,2,0,0,1-1.07-.62,1.47,1.47,0,0,1-.34-.78A1.63,1.63,0,0,1,11.59,31.85Z"/></g><g class="cls-12"><path class="cls-13" d="M10.29,34.9c.68,0,1.09,0,1.22-.25a.27.27,0,0,0-.07-.33.67.67,0,0,0-.57-.09c-.39.15-.23.27,0,.37a1.86,1.86,0,0,0,1.24,0A1.29,1.29,0,0,1,12.84,36a1.46,1.46,0,0,1-1.12,1.25,1.76,1.76,0,0,1-1.27-.12,1.51,1.51,0,0,1-.66-.72A1.29,1.29,0,0,1,10.29,34.9Z"/></g><g class="cls-12"><path class="cls-13" d="M12.15,37.33a1.4,1.4,0,0,0,1.1-.47.28.28,0,0,0,.06-.25c0-.08-.19-.16-.47-.15s-.43.17-.45.25,0,.14.16.18a5.85,5.85,0,0,0,1.24.32,1.59,1.59,0,0,1,.6,1.28.94.94,0,0,1-.25.58,1.61,1.61,0,0,1-1,.47,1.54,1.54,0,0,1-1-.25,1.21,1.21,0,0,1,0-2Z"/></g><g class="cls-12"><path class="cls-13" d="M28.22,34.74A2.08,2.08,0,0,1,29,36.27a2.16,2.16,0,0,1-.39,1.34,2,2,0,0,1-1.06.78,2.56,2.56,0,0,1-1.67-.07,4.69,4.69,0,0,1-.11-1.59,1.88,1.88,0,0,1,.32-.9,1.77,1.77,0,0,1,.69-.55C27.12,35.13,27.53,35,28.22,34.74Z"/></g><g class="cls-12"><path class="cls-13" d="M29.06,37a1.76,1.76,0,0,1,.55,1.45,1.53,1.53,0,0,1-1.75,1.37,1.77,1.77,0,0,1-1.27-.9c.18-.67.24-1.05.3-1.33s.12-.44.24-.52a.87.87,0,0,1,.57-.1C28,36.94,28.37,37,29.06,37Z"/></g><g class="cls-12"><path class="cls-13" d="M28.94,40a1,1,0,0,1-.17.84,2.49,2.49,0,0,1-.35.48,1,1,0,0,1-.8.27.93.93,0,0,1-.69-.49,2,2,0,0,1-.14-1.37l.89-.95c.18-.17.3-.26.4-.24s.18.13.31.36a3.2,3.2,0,0,1,.2.44A1,1,0,0,0,28.94,40Z"/></g><g class="cls-12"><path class="cls-13" d="M31,42.27a4.06,4.06,0,0,1-1.51.62,2.13,2.13,0,0,1-1.11-.1,2,2,0,0,1-.89-.66,3.77,3.77,0,0,1-.72-1.47,2.82,2.82,0,0,1,1.46-.84,2.1,2.1,0,0,1,1.25.09,2.18,2.18,0,0,1,1,.76A3,3,0,0,1,31,42.27Z"/></g><g class="cls-12"><path class="cls-13" d="M32.6,44.27a4.75,4.75,0,0,1-2.05.35,4.69,4.69,0,0,1-1.65-.38,4.71,4.71,0,0,1-2.54-2.7,4.18,4.18,0,0,1,2-.5,4.5,4.5,0,0,1,1.73.37,4.45,4.45,0,0,1,1.45,1A4.2,4.2,0,0,1,32.6,44.27Z"/></g><g class="cls-12"><path class="cls-13" d="M33.76,46.34a5.06,5.06,0,0,1-2.59.32A6.63,6.63,0,0,1,27,44.44a5.36,5.36,0,0,1-1.19-2.3,7.49,7.49,0,0,1,2.51.26,9.19,9.19,0,0,1,2,.81,9.44,9.44,0,0,1,1.78,1.23A8.31,8.31,0,0,1,33.76,46.34Z"/></g><g class="cls-12"><path class="cls-13" d="M13.78,26.43c.36-.73.49-1.18.71-1.6a3.4,3.4,0,0,1,.87-1.08,3.64,3.64,0,0,1,1.22-.63c.46-.13,1-.19,1.75-.33a2.48,2.48,0,0,1,0,2,3.38,3.38,0,0,1-1,1.33,3.55,3.55,0,0,1-1.5.71A2.32,2.32,0,0,1,13.78,26.43Z"/></g><g class="cls-12"><path class="cls-13" d="M16.79,27.09A8.26,8.26,0,0,1,17,25.35a3.45,3.45,0,0,1,.46-1.08,3.32,3.32,0,0,1,.84-.83,8.36,8.36,0,0,1,1.55-.83,2.64,2.64,0,0,1,.67,1.81,2.92,2.92,0,0,1-1.81,2.64A2.65,2.65,0,0,1,16.79,27.09Z"/></g><g class="cls-12"><path class="cls-13" d="M20,26.44A7.76,7.76,0,0,1,19.64,25a1.84,1.84,0,0,1,.1-.88,1.63,1.63,0,0,1,.57-.66,7.37,7.37,0,0,1,1.34-.76,2.2,2.2,0,0,1,1,1.33,2,2,0,0,1-.1,1.33,2.1,2.1,0,0,1-.91,1A2.27,2.27,0,0,1,20,26.44Z"/></g><path class="cls-14" d="M33.52,9.09a8.36,8.36,0,0,1-.37-1.76,8.91,8.91,0,0,0,.63,4.88,17.59,17.59,0,0,0,3.14-.69,5,5,0,0,1-1.73-.42A3.62,3.62,0,0,1,33.52,9.09Z"/><path class="cls-27" d="M22.64,13.65a4.58,4.58,0,0,0,3.25,1.62A3.34,3.34,0,0,1,24,12a5.89,5.89,0,0,1,4.16-5.45,11.77,11.77,0,0,0-4.58,1.75C21.88,9.63,21.17,11.81,22.64,13.65Z"/></g></g></svg>