<svg xmlns="http://www.w3.org/2000/svg" viewBox="0 0 92.98 105.12"><defs><style>.cls-1{fill:#004656;}</style></defs><g id="_1" data-name="1"><path class="cls-1" d="M84.86,104.84H8.24A8.21,8.21,0,0,1,.05,96.65V8A8.21,8.21,0,0,1,8.24-.16H84.86A8.22,8.22,0,0,1,93.05,8V96.65A8.21,8.21,0,0,1,84.86,104.84ZM57.07,64.68c-.18,0-.54.67-.54.67L46.8,79.77s-10.08-15-10.29-15C19.54,66.14,7.42,71.06,7.42,77c0,7,17.63,12.66,39.38,12.66S86.18,84,86.18,77C86.18,71,74.31,66,57.07,64.68ZM46.86,76.61c.71-.85,1.71-2.41,3.12-4.4,5.25-7.51,17.31-26.37,17.31-36.72a20.43,20.43,0,1,0-40.85,0c0,11.06,10.78,27.79,17.16,36.72C45,74.2,46.3,75.76,46.86,76.61Zm-13.18-41c0-9.76,10.42-17,20.76-11.32a10,10,0,0,1,3.89,3.89C64,38.54,56.76,49,47,49A13.4,13.4,0,0,1,33.68,35.63Zm24.81,0c0-8.58-9.22-14.85-18.37-9.52a7.37,7.37,0,0,0-2.63,2.63c-5.33,9.15.94,18.37,9.52,18.37A11.52,11.52,0,0,0,58.49,35.63Z"/></g></svg>