<svg xmlns="http://www.w3.org/2000/svg" viewBox="0 0 92.98 104.93"><defs><style>.cls-1{fill:#004656;}</style></defs><g id="_1" data-name="1"><path class="cls-1" d="M79,104.5H14a14,14,0,0,1-14-14V14.08a14,14,0,0,1,14-14H79a14,14,0,0,1,14,14V90.53A14,14,0,0,1,79,104.5ZM60.28,86a35.47,35.47,0,1,0-13.79,2.79A35.38,35.38,0,0,0,60.28,86Zm6.61-53a28.85,28.85,0,1,1-20.4-8.45A28.65,28.65,0,0,1,66.89,33ZM60.43,43.71l-4.3-4.3-9.64,9.65-9.64-9.65-4.3,4.3,9.64,9.65L32.55,63l4.3,4.3,9.64-9.64,9.64,9.64,4.3-4.3-9.64-9.64Z"/></g></svg>