<svg xmlns="http://www.w3.org/2000/svg" viewBox="0 0 92.98 104.93"><defs><style>.cls-1{fill:#004656;}</style></defs><g id="_1" data-name="1"><path class="cls-1" d="M7.59,0h77.8A7.59,7.59,0,0,1,93,7.59V78.43A7.59,7.59,0,0,1,85.39,86H70.47L45.66,104.93,20.84,86H7.59A7.59,7.59,0,0,1,0,78.43V7.59A7.59,7.59,0,0,1,7.59,0ZM50.74,21.53a5.9,5.9,0,0,0,1.89-4.65,5.71,5.71,0,0,0-1.93-4.67,6.76,6.76,0,0,0-4.44-1.61,6.6,6.6,0,0,0-4.56,1.77,5.81,5.81,0,0,0-2,4.51,5.87,5.87,0,0,0,1.91,4.68,6.82,6.82,0,0,0,4.61,1.65A6.51,6.51,0,0,0,50.74,21.53Zm0,9.61a6.18,6.18,0,0,0-4.67-1.93,6,6,0,0,0-4.61,1.93q-1.77,1.94-1.77,5.76V73.78a8.57,8.57,0,0,0,1.77,5.81,5.81,5.81,0,0,0,4.61,2,6.11,6.11,0,0,0,4.67-2q1.85-2,1.84-5.86V36.53A7.5,7.5,0,0,0,50.79,31.14Z"/></g></svg>