<svg xmlns="http://www.w3.org/2000/svg" viewBox="0 0 92.98 105.12"><defs><style>.cls-1{fill:#004656;}</style></defs><g id="_1" data-name="1"><path class="cls-1" d="M7.59,0h77.8A7.59,7.59,0,0,1,93,7.59V97.52a7.59,7.59,0,0,1-7.59,7.6H7.59A7.59,7.59,0,0,1,0,97.52V7.59A7.59,7.59,0,0,1,7.59,0ZM35.26,59.13H77.32a8.34,8.34,0,0,0,1.5-.1,5.52,5.52,0,0,0-1-11H35.2l-.13-.23a2.94,2.94,0,0,0,.55-.37q4.85-4.83,9.68-9.67c2.25-2.25,4.53-4.46,6.71-6.76a5.18,5.18,0,0,0,1.06-5.72,5.52,5.52,0,0,0-9.14-1.81L18,49.43a5.58,5.58,0,0,0,0,8.3q3.32,3.33,6.65,6.65L43.83,83.56a5.54,5.54,0,1,0,7.92-7.75q-8-8-16.08-16.07a4.26,4.26,0,0,0-.53-.39Z"/></g></svg>