<svg xmlns="http://www.w3.org/2000/svg" viewBox="0 0 122.91 104.4"><defs><style>.cls-1{fill:#004656;fill-rule:evenodd;}</style></defs><g id="_1" data-name="1"><path class="cls-1" d="M85.24,86.4l21.89,16.52c3.9,3,7.05,1.3,7.05-3.53v-13h4.27A4.52,4.52,0,0,0,122.91,82V38a4.52,4.52,0,0,0-4.46-4.45H92.1V52.26A17.38,17.38,0,0,1,74.84,69.7H51.28V82a4.51,4.51,0,0,0,4.45,4.45Z"/><path class="cls-1" d="M44.16,62,18.37,81.28c-4.45,3.33-8.16,1.48-8.16-4.27V62h-5A5.32,5.32,0,0,1,0,56.78V5.2A5.31,5.31,0,0,1,5.2,0H78.86a5.28,5.28,0,0,1,5,5.2V56.78a5.28,5.28,0,0,1-5,5.2ZM21.93,23.55a7,7,0,1,0,7,7.05A7.05,7.05,0,0,0,21.93,23.55Zm21.13,0a7,7,0,1,0,7,7.05A7,7,0,0,0,43.06,23.55Zm20.55,0a7,7,0,1,0,7,7.05A7.05,7.05,0,0,0,63.61,23.55Z"/></g></svg>