<svg xmlns="http://www.w3.org/2000/svg" viewBox="0 0 324.85 100"><defs><style>.cls-1{fill:#004656;}.cls-2{fill:#fff;}</style></defs><g id="_1" data-name="1"><path class="cls-1" d="M324.09,43.08V59.53A17.43,17.43,0,0,1,306.65,77H89.6a48.3,48.3,0,1,1,1.89-51.32H306.65A17.44,17.44,0,0,1,324.09,43.08ZM49,7.79a42,42,0,1,0,42,42A42,42,0,0,0,49,7.79ZM25,74V27.88a7.38,7.38,0,0,1,7.38-7.38H54.63a3.71,3.71,0,0,1,3.71,3.71h0a3.71,3.71,0,0,1-3.71,3.71H32.41V74h23.3a3.72,3.72,0,0,1,3.71,3.71h0a3.71,3.71,0,0,1-3.71,3.71H32.37A7.38,7.38,0,0,1,25,74ZM63.38,35.91h0A3.71,3.71,0,0,0,63,41.14l5.26,6.11H40.36A3.71,3.71,0,0,0,36.65,51h0a3.71,3.71,0,0,0,3.71,3.7H68.25L63,60.77A3.71,3.71,0,0,0,63.38,66h0a3.71,3.71,0,0,0,5.23-.39L78.68,53.92a4.54,4.54,0,0,0,0-5.93L68.61,36.3A3.71,3.71,0,0,0,63.38,35.91Z"/><path class="cls-2" d="M99.17,62.91V38.44a1.09,1.09,0,0,1,.27-.87,1.45,1.45,0,0,1,.89-.21h7.4q4.41,0,6.64,2a6.15,6.15,0,0,1,1.95,4.75,5.79,5.79,0,0,1-.92,3.26,5.59,5.59,0,0,1-2.72,2.15v.16a6.53,6.53,0,0,1,3.43,2.53,7.3,7.3,0,0,1,1.25,4.26,7.42,7.42,0,0,1-1.92,5.37q-2.26,2.34-6.91,2.34h-8.2C99.56,64.22,99.17,63.78,99.17,62.91Zm7.64-15.42a4.12,4.12,0,0,0,2.68-.74,2.33,2.33,0,0,0,.89-1.85,2.23,2.23,0,0,0-.69-1.71,4.26,4.26,0,0,0-2.92-.84h-1.23c-.46,0-.69.18-.69.53V47c0,.31.24.46.73.46Zm-1.46,11.74h1.77a4.4,4.4,0,0,0,3.06-.94,3.1,3.1,0,0,0,1-2.38,3.21,3.21,0,0,0-.92-2.35,4.37,4.37,0,0,0-3.18-1.08h-1.65c-.29,0-.46.06-.52.19a1,1,0,0,0-.1.46v5.64C104.85,59.08,105,59.23,105.35,59.23Z"/><path class="cls-2" d="M124.49,64.22h-2.91a1.74,1.74,0,0,1-.92-.16,1.35,1.35,0,0,1-.43-1.18V38.71a1.85,1.85,0,0,1,.16-.92,1.36,1.36,0,0,1,1.19-.43h3q.89,0,1.11.33a1.75,1.75,0,0,1,.23,1V51.25l5.14-12.54a3,3,0,0,1,.64-1.1,1.32,1.32,0,0,1,.86-.25h3.11c.58,0,1,.11,1.11.33a1.83,1.83,0,0,1,.23,1V62.88a1.9,1.9,0,0,1-.15.92,1.42,1.42,0,0,1-1.19.42h-3q-.87,0-1.11-.33a1.77,1.77,0,0,1-.23-1V49.72l-5.06,13.16a2.13,2.13,0,0,1-.71,1.09A2,2,0,0,1,124.49,64.22Z"/><path class="cls-2" d="M144.27,64.22h-2.88a1.74,1.74,0,0,1-.91-.16,1.41,1.41,0,0,1-.41-1.18V38.71a1.87,1.87,0,0,1,.15-.92,1.38,1.38,0,0,1,1.19-.43h3c.59,0,1,.11,1.12.33a1.83,1.83,0,0,1,.23,1V51.25l5.1-12.54a3,3,0,0,1,.64-1.1,1.32,1.32,0,0,1,.86-.25h3.13c.59,0,1,.11,1.12.33a1.75,1.75,0,0,1,.23,1V62.88a1.9,1.9,0,0,1-.15.92,1.4,1.4,0,0,1-1.19.42h-3q-.88,0-1.11-.33a1.69,1.69,0,0,1-.23-1V49.72L146,62.88a2.07,2.07,0,0,1-.7,1.09A1.88,1.88,0,0,1,144.27,64.22Zm7.42-28.62h-6.52a2.25,2.25,0,0,1-1.82-.79,2.55,2.55,0,0,1-.67-1.7v-.54a.94.94,0,0,1,.07-.37c.06-.11.18-.17.39-.17h2.34a.47.47,0,0,1,.53.54c0,.48.44.73,1.31.73h2.22c.87,0,1.31-.25,1.31-.73a.48.48,0,0,1,.54-.54h2.34a.34.34,0,0,1,.34.17,2.29,2.29,0,0,1,.12.37v.54a2.58,2.58,0,0,1-.66,1.7A2.23,2.23,0,0,1,151.69,35.6Z"/><path class="cls-2" d="M159.4,37.36h17a.67.67,0,0,1,.63.29,1.15,1.15,0,0,1,.17.63V41.7a.7.7,0,0,1-.8.8h-5a.61.61,0,0,0-.69.69V62.88a1.9,1.9,0,0,1-.15.92,1.4,1.4,0,0,1-1.19.42h-3c-.59,0-1-.11-1.12-.33a1.77,1.77,0,0,1-.23-1V43.19a.61.61,0,0,0-.69-.69h-4.83c-.64,0-1-.25-1-.76V38.09C158.56,37.61,158.84,37.36,159.4,37.36Z"/><path class="cls-2" d="M183.19,64.22h-2.92a1.76,1.76,0,0,1-.92-.16,1.38,1.38,0,0,1-.42-1.18V38.71a1.87,1.87,0,0,1,.15-.92,1.38,1.38,0,0,1,1.19-.43h3q.87,0,1.11.33a1.83,1.83,0,0,1,.23,1V51.25l5.14-12.54a3.14,3.14,0,0,1,.63-1.1,1.32,1.32,0,0,1,.86-.25h3.11q.89,0,1.11.33a1.74,1.74,0,0,1,.24,1V62.88a1.87,1.87,0,0,1-.16.92,1.39,1.39,0,0,1-1.19.42h-3q-.88,0-1.11-.33a1.69,1.69,0,0,1-.23-1V49.72L185,62.88a2.07,2.07,0,0,1-.71,1.09A1.92,1.92,0,0,1,183.19,64.22Z"/><path class="cls-2" d="M210.27,41.47V38.4a1,1,0,0,1,.73-1,15.42,15.42,0,0,1,4.38-.38A11.72,11.72,0,0,1,221,38.13c2.05,1.15,3.07,3.28,3.07,6.37a6.94,6.94,0,0,1-1,4A4.59,4.59,0,0,1,221.28,50,4.69,4.69,0,0,1,224,53a12,12,0,0,1,.46,3.72,8.77,8.77,0,0,1-1.26,5.18q-1.92,2.61-7.14,2.61a18.91,18.91,0,0,1-5-.39A1.33,1.33,0,0,1,210,62.88V59.46c0-.48.22-.73.66-.73a2.92,2.92,0,0,1,.68.1l1,.21c.37.08.76.14,1.17.19a11.15,11.15,0,0,0,1.35.08,3.3,3.3,0,0,0,3-1.31,3.48,3.48,0,0,0,.54-2A3.44,3.44,0,0,0,217,52.9a3.84,3.84,0,0,0-2.14-.57h-1.69a1.85,1.85,0,0,1-.92-.16,1.39,1.39,0,0,1-.42-1.19V48.57a2,2,0,0,1,.15-.93,1.39,1.39,0,0,1,1.19-.42h1.95a3.53,3.53,0,0,0,2.1-.57,2.06,2.06,0,0,0,.78-1.77,2.37,2.37,0,0,0-.69-1.8,4.35,4.35,0,0,0-3.07-.88c-.43,0-.77,0-1,0a8.46,8.46,0,0,0-1.06.13L211,42.5a.75.75,0,0,1-.59-.19A1.33,1.33,0,0,1,210.27,41.47Z"/><path class="cls-2" d="M238.47,49.14V38.71a1.87,1.87,0,0,1,.15-.92,1.38,1.38,0,0,1,1.19-.43h3c.59,0,1,.11,1.12.33a1.83,1.83,0,0,1,.23,1V47.8a2.69,2.69,0,0,0,.76,2.15,2.36,2.36,0,0,0,1.58.5,1.94,1.94,0,0,0,1.91-1.08,4.38,4.38,0,0,0,.39-2V38.71a1.87,1.87,0,0,1,.15-.92,1.38,1.38,0,0,1,1.19-.43h3c.59,0,1,.11,1.12.33a1.83,1.83,0,0,1,.23,1V62.88q0,.87-.33,1.11a1.83,1.83,0,0,1-1,.23h-3q-.88,0-1.11-.33a1.77,1.77,0,0,1-.23-1V55.24c0-.25-.08-.38-.23-.38a13.33,13.33,0,0,1-1.84.65,8,8,0,0,1-2.15.31,6.21,6.21,0,0,1-4.07-1.27C239.15,53.43,238.47,51.62,238.47,49.14Z"/><path class="cls-2" d="M263.52,37.36h4.83a1.38,1.38,0,0,1,.79.2,1.53,1.53,0,0,1,.48.88l6.22,24.63a1.59,1.59,0,0,1,.07.5c0,.43-.28.65-.84.65h-3.76a1,1,0,0,1-.83-.31,2,2,0,0,1-.36-.77l-.77-2.91a.71.71,0,0,0-.76-.58h-5.26a.68.68,0,0,0-.77.58l-.73,3a1.49,1.49,0,0,1-.32.67,1,1,0,0,1-.79.29H257a.64.64,0,0,1-.73-.73v-.23a.84.84,0,0,0,.08-.19l5.9-24.63a1.38,1.38,0,0,1,.45-.88A1.44,1.44,0,0,1,263.52,37.36Zm.85,17.15h3.18q.42,0,.27-.57l-1.69-6.79a.47.47,0,0,0-.14-.25l-.13-.14a1.05,1.05,0,0,0-.27.39l-1.49,6.79Q263.94,54.51,264.37,54.51Z"/><path class="cls-2" d="M277.22,37.36h17a.67.67,0,0,1,.63.29,1.16,1.16,0,0,1,.18.63V41.7a.71.71,0,0,1-.81.8h-5a.61.61,0,0,0-.69.69V62.88a1.9,1.9,0,0,1-.15.92,1.4,1.4,0,0,1-1.19.42h-3c-.59,0-1-.11-1.12-.33a1.77,1.77,0,0,1-.23-1V43.19a.61.61,0,0,0-.69-.69h-4.83c-.64,0-1-.25-1-.76V38.09C276.37,37.61,276.65,37.36,277.22,37.36Z"/><path class="cls-2" d="M296.28,37.36h4.38a1.18,1.18,0,0,1,.8.25,1.23,1.23,0,0,1,.35.6l3.3,9.63c.3.89.49,1.34.57,1.34s.32-.36.5-1.07c.08-.31.15-.63.23-1l2.76-9a1,1,0,0,1,.46-.65,1.37,1.37,0,0,1,.66-.16h4.1c.51,0,.77.2.77.58v.23a.84.84,0,0,0-.08.19l-5.95,18.38q-1.49,4.63-3.68,6.33a8.54,8.54,0,0,1-5.33,1.46h-.62a9.06,9.06,0,0,1-2-.16,1.09,1.09,0,0,1-.92-1.07V60a.62.62,0,0,1,.27-.58,1.23,1.23,0,0,1,.61-.15,7.44,7.44,0,0,1,1.86.15,2.77,2.77,0,0,0,.91.16,2.37,2.37,0,0,0,1.57-.58,1.73,1.73,0,0,0,.69-1.38,3.54,3.54,0,0,0-.12-1.12l-6.71-18.1a.86.86,0,0,1,0-.65A.6.6,0,0,1,296.28,37.36Z"/></g></svg>